<svg width="38" height="38" viewBox="0 0 38 38" fill="none" xmlns="http://www.w3.org/2000/svg">
<circle cx="19" cy="19" r="19" fill="#DEDEDE"/>
<path d="M25.3333 26.125V24.5417C25.3333 23.7018 24.9997 22.8964 24.4058 22.3025C23.812 21.7086 23.0065 21.375 22.1667 21.375H15.8333C14.9935 21.375 14.188 21.7086 13.5942 22.3025C13.0003 22.8964 12.6667 23.7018 12.6667 24.5417V26.125" stroke="#878787" stroke-width="1.5" stroke-linecap="round" stroke-linejoin="round"/>
<path d="M19 18.2083C20.7489 18.2083 22.1667 16.7906 22.1667 15.0417C22.1667 13.2928 20.7489 11.875 19 11.875C17.2511 11.875 15.8333 13.2928 15.8333 15.0417C15.8333 16.7906 17.2511 18.2083 19 18.2083Z" stroke="#878787" stroke-width="1.5" stroke-linecap="round" stroke-linejoin="round"/>
<rect x="10" y="10" width="18" height="18" stroke="#DEDEDE"/>
</svg>
